<svg width="321" height="311" viewBox="0 0 321 311" fill="none" xmlns="http://www.w3.org/2000/svg">
<path d="M40.1996 255.662H16.0256V264.063H40.1996V255.662Z" fill="#EBEBEB"/>
<path d="M26.7086 266.255H2.53467V274.656H26.7086V266.255Z" fill="#EBEBEB"/>
<path d="M95.8973 98.231H71.7234V106.632H95.8973V98.231Z" fill="#EBEBEB"/>
<path d="M82.4139 108.824H58.24V117.225H82.4139V108.824Z" fill="#EBEBEB"/>
<path d="M68.983 98.231H44.8091V106.632H68.983V98.231Z" fill="#EBEBEB"/>
<path d="M318.245 266.255H294.071V274.656H318.245V266.255Z" fill="#EBEBEB"/>
<path d="M304.762 1.83545H280.588V10.2363H304.762V1.83545Z" fill="#EBEBEB"/>
<path d="M318.245 12.4284H294.071V20.8293H318.245V12.4284Z" fill="#EBEBEB"/>
<path d="M26.7086 1.83545H2.53467V10.2363H26.7086V1.83545Z" fill="#EBEBEB"/>
<path d="M109.508 57.8184H0.199951V62.5106H109.508V57.8184Z" fill="#EBEBEB"/>
<path d="M16.0932 80.9864H11.8365L10.1248 62.5106H16.0932V80.9864Z" fill="#EBEBEB"/>
<path d="M93.615 80.9864H97.8717L99.5834 62.5106H93.615V80.9864Z" fill="#EBEBEB"/>
<path d="M10.1248 62.5106H16.0857V68.8694H10.7103L10.1248 62.5106Z" fill="#DBDBDB"/>
<path d="M99.5759 62.5106L98.9903 68.8694H93.615V62.5106H99.5759Z" fill="#DBDBDB"/>
<path d="M31.7762 32.7361C27.4594 38.5844 22.955 45.3786 21.8589 52.7134C21.8589 52.826 22.0241 52.8635 22.0466 52.7134C22.544 50.7109 23.1837 48.7464 23.961 46.835C26.7988 46.0843 29.584 45.4161 31.078 42.5933C32.572 39.7705 32.4068 35.9192 32.114 32.7586C32.099 32.631 31.8663 32.6235 31.7762 32.7361Z" fill="#EBEBEB"/>
<path d="M23.9985 46.82C25.9035 42.3587 28.4671 38.2084 31.6036 34.5078C31.6561 34.5078 31.6036 34.5078 31.6036 34.5078C29.6271 37.0601 27.8906 39.7893 26.4159 42.6609C27.8499 41.212 29.4189 39.9132 30.7702 38.3666C30.7702 38.3666 30.8378 38.3666 30.8153 38.4117C29.5179 40.1431 27.9897 41.689 26.2733 43.0062C25.8078 43.8771 25.3349 44.748 24.8544 45.6113L25.2147 45.4311C25.0834 45.5037 24.948 45.5689 24.8093 45.6263C24.5841 46.0392 24.3589 46.4521 24.1262 46.8651C24.0886 46.9927 23.961 46.9101 23.9985 46.82Z" fill="#A6A6A6"/>
<path d="M25.4475 45.3035C26.6074 44.6392 27.7143 43.8862 28.7583 43.0513C28.7583 43.0513 28.8334 43.0513 28.8033 43.0513C27.7899 43.9267 26.6789 44.6824 25.4925 45.3035C25.44 45.4086 25.3949 45.3336 25.4475 45.3035Z" fill="#A6A6A6"/>
<path d="M21.386 52.6458C21.3913 52.6626 21.4018 52.6773 21.416 52.6877C21.4301 52.6981 21.4473 52.7038 21.4649 52.7038C21.4825 52.7038 21.4996 52.6981 21.5138 52.6877C21.528 52.6773 21.5385 52.6626 21.5437 52.6458C21.5437 50.2284 21.5437 47.8035 21.5437 45.3786C22.1593 44.1248 23.4881 43.4342 24.4115 42.4357C25.0766 41.7032 25.656 40.8972 26.1383 40.0333C27.2518 37.9706 27.9314 35.7019 28.1352 33.3667C28.3905 30.7841 27.3845 22.2557 26.3259 22.5485C25.7554 22.6986 23.9311 26.9253 23.4431 28.3217C22.6562 30.627 22.0808 32.9991 21.7239 35.4087C20.9515 41.1225 20.8382 46.9061 21.386 52.6458Z" fill="#EBEBEB"/>
<path d="M21.3634 42.2555C21.607 39.1832 22.1093 36.1369 22.8649 33.149C23.4258 29.9688 24.4875 26.8976 26.0106 24.05C26.0106 23.9974 26.1157 24.05 26.0931 24.095C24.9956 26.3118 24.1471 28.6433 23.5631 31.0469C23.6682 30.8742 23.8034 30.7091 23.916 30.5439C24.0286 30.3787 24.0661 30.5439 24.0286 30.6115C23.8818 30.8786 23.7082 31.1301 23.5106 31.3622C22.9475 33.6145 22.5421 35.9793 22.1893 38.3066L22.2568 38.2015C22.2118 38.2015 22.1667 38.3517 22.1217 38.4342C21.949 39.6129 21.7839 40.7916 21.6187 41.9627C23.773 40.2519 25.4659 38.03 26.5436 35.4988C25.6432 38.22 23.9032 40.5856 21.5737 42.2555L21.4385 43.2015C21.4385 43.2615 21.3259 43.2465 21.3259 43.2015C21.3259 42.9162 21.3259 42.6384 21.3259 42.3606C21.3194 42.3517 21.3152 42.3414 21.3137 42.3305C21.3121 42.3196 21.3132 42.3085 21.3169 42.2982C21.3206 42.2878 21.3268 42.2785 21.3349 42.2711C21.343 42.2636 21.3528 42.2583 21.3634 42.2555Z" fill="#A6A6A6"/>
<path d="M22.3618 37.7886C24.005 35.4569 25.4395 32.9849 26.6486 30.4012C26.6486 30.4012 26.7161 30.4012 26.7011 30.4012C25.7409 33.1162 24.2961 35.6345 22.4369 37.8336C22.4291 37.8373 22.4204 37.8391 22.4118 37.8386C22.4031 37.8382 22.3947 37.8357 22.3873 37.8312C22.3798 37.8268 22.3736 37.8205 22.3692 37.8131C22.3647 37.8056 22.3622 37.7972 22.3618 37.7886Z" fill="#A6A6A6"/>
<path d="M20.1998 46.4522C20.1707 48.056 19.9821 49.6529 19.6368 51.2194C19.6368 51.3846 19.6893 51.5572 19.7119 51.7374C20.2033 50.0079 20.488 48.2262 20.5602 46.4297C20.5763 46.4051 20.585 46.3764 20.585 46.3471C20.585 46.3177 20.5763 46.289 20.5602 46.2645C20.6271 43.8543 20.4409 41.4437 20.0047 39.0724C19.2539 34.628 17.6248 30.3637 14.5242 27.0605C14.4991 27.0386 14.4693 27.0229 14.4372 27.0143C14.405 27.0058 14.3713 27.0048 14.3387 27.0113C14.3061 27.0178 14.2754 27.0317 14.249 27.052C14.2226 27.0722 14.2012 27.0982 14.1864 27.128C12.9326 30.3112 13.3681 34.1024 14.4341 37.2706C15.0117 38.9889 15.8388 40.6128 16.8891 42.0904C17.9851 43.5618 19.3365 44.8231 20.1998 46.4522Z" fill="#EBEBEB"/>
<path d="M14.9221 28.5244C17.9891 33.348 19.7961 38.8644 20.1773 44.5678C20.1773 44.6654 20.0196 44.6879 20.0046 44.5678C19.9371 44.0648 19.8545 43.5618 19.7719 43.0663C18.4862 41.9503 17.3551 40.6677 16.4086 39.2525C16.4086 39.2525 16.4086 39.2 16.4536 39.2525C17.4607 40.4899 18.5413 41.6657 19.6893 42.7735C19.4791 41.5273 19.2314 40.3036 18.9386 39.0949L18.7058 38.8246C18.6533 38.7646 18.7434 38.6745 18.7959 38.7345L18.8635 38.8171C18.4618 37.1642 17.9603 35.5371 17.362 33.9448C16.547 33.1194 15.8338 32.1994 15.2374 31.2046C15.2374 31.1595 15.2374 31.2046 15.2374 31.2046C15.6577 31.8291 16.1113 32.4306 16.5962 33.0063C16.7914 33.2316 17.0092 33.4493 17.2119 33.667C16.5368 31.9404 15.7338 30.2666 14.8095 28.6595C14.7494 28.5169 14.877 28.4568 14.9221 28.5244Z" fill="#A6A6A6"/>
<path d="M15.5 34.4027C16.4535 35.679 17.5346 36.8952 18.4129 38.2165C18.4189 38.2245 18.4215 38.2345 18.4201 38.2443C18.4186 38.2542 18.4134 38.2631 18.4054 38.269C18.3974 38.275 18.3874 38.2776 18.3776 38.2762C18.3677 38.2748 18.3588 38.2695 18.3529 38.2615C17.2263 37.1143 16.2477 35.8305 15.44 34.4402C15.425 34.3952 15.5 34.3652 15.5 34.4027Z" fill="#A6A6A6"/>
<path d="M18.5632 38.5018L18.6007 38.5468C18.6007 38.5468 18.6007 38.6144 18.5557 38.5919V38.5468C18.5557 38.5468 18.5032 38.5018 18.5632 38.5018Z" fill="#A6A6A6"/>
<path d="M9.8695 36.4823C10.2165 39.1456 11.2891 41.6622 12.9701 43.757C13.6692 44.5758 14.5307 45.2404 15.5001 45.7089C16.5887 46.242 17.7523 46.8651 18.8559 47.308C19.3784 48.6701 19.7632 50.081 20.0045 51.5197C20.0045 51.3996 20.0796 51.272 20.1096 51.1518C19.4039 44.9432 15.3875 39.6429 10.2449 36.2496C10.2054 36.2285 10.1611 36.2182 10.1164 36.2196C10.0717 36.2211 10.0282 36.2342 9.99013 36.2578C9.95212 36.2814 9.92096 36.3145 9.89979 36.3539C9.87862 36.3933 9.86817 36.4376 9.8695 36.4823Z" fill="#EBEBEB"/>
<path d="M11.6488 38.3141C11.6435 38.3062 11.6408 38.2969 11.6411 38.2874C11.6415 38.2779 11.6448 38.2688 11.6506 38.2613C11.6564 38.2538 11.6645 38.2483 11.6736 38.2457C11.6827 38.243 11.6924 38.2433 11.7013 38.2465C14.5222 40.3438 16.7707 43.1164 18.2403 46.3095C18.2467 46.3261 18.2469 46.3444 18.2411 46.3612C18.2352 46.3779 18.2236 46.392 18.2083 46.401C18.193 46.41 18.175 46.4133 18.1575 46.4103C18.14 46.4073 18.1241 46.3982 18.1127 46.3846C17.88 45.9642 17.6322 45.5588 17.362 45.1609C16.1668 44.8414 15.0784 44.2091 14.2088 43.3291C14.6653 43.7363 15.1695 44.0867 15.7103 44.3726C16.1908 44.6128 16.7013 44.763 17.2118 44.9582C16.7764 44.2675 16.3259 43.6068 15.853 42.9687C14.5876 42.4862 13.4009 41.8182 12.332 40.9867C12.2944 40.9867 12.332 40.9042 12.332 40.9267C13.3923 41.5679 14.4848 42.1543 15.6052 42.6834C14.8944 41.7353 14.1219 40.835 13.2929 39.9883C12.895 39.7781 12.4971 39.5603 12.1067 39.3351C12.1067 39.3351 12.1067 39.2675 12.1067 39.2751C12.4257 39.3901 12.7305 39.5412 13.0151 39.7255C12.6323 39.2525 12.1593 38.7645 11.6488 38.3141Z" fill="#A6A6A6"/>
<path d="M11.7463 40.4537C11.8156 40.4951 11.881 40.5429 11.9415 40.5964C11.87 40.5663 11.8021 40.5285 11.7388 40.4838C11.7388 40.4838 11.7463 40.4312 11.7463 40.4537Z" fill="#A6A6A6"/>
<path d="M26.4459 57.8109H15.8679L16.3859 50.8816L16.5886 48.6218H25.6276L25.8303 50.8816L26.4459 57.8109Z" fill="#DBDBDB"/>
<path d="M25.8303 50.8816H16.386L16.5887 48.6218H25.6276L25.8303 50.8816Z" fill="#C7C7C7"/>
<path d="M26.3483 46.7675H15.8679V49.0873H26.3483V46.7675Z" fill="#DBDBDB"/>
<path d="M60.8 57.7959V26.2571H52.8572V57.7959H60.8Z" fill="#C7C7C7"/>
<path d="M60.8 28.0364V24.568H52.8572V28.0364H60.8Z" fill="#DBDBDB"/>
<path d="M60.8 33.7571V32.4733H52.8572V33.7571H60.8Z" fill="#DBDBDB"/>
<path d="M60.8 53.6593V50.1909H52.8572V53.6593H60.8Z" fill="#DBDBDB"/>
<path d="M66.3479 57.7959V21.002H60.7999V57.7959H66.3479Z" fill="#DBDBDB"/>
<path d="M65.2219 38.6144V24.4629H61.8886V38.6144H65.2219Z" fill="#EBEBEB"/>
<path d="M105.881 53.8077L79.7146 27.9407L75.8142 31.8863L101.981 57.7533L105.881 53.8077Z" fill="#C7C7C7"/>
<path d="M98.973 48.5139L88.9089 38.5651L86.5655 40.9356L96.6297 50.8844L98.973 48.5139Z" fill="#DBDBDB"/>
<path d="M75.7698 57.8034V29.8532H66.3404V57.8034H75.7698Z" fill="#A6A6A6"/>
<path d="M75.7698 54.838V52.2329H66.3404V54.838H75.7698Z" fill="#C7C7C7"/>
<path d="M75.7773 50.5287V49.5152H66.348V50.5287H75.7773Z" fill="#C7C7C7"/>
<path d="M42.5512 57.8162L52.9092 33.6842L46.9279 31.117L36.57 55.249L42.5512 57.8162Z" fill="#A6A6A6"/>
<path d="M43.6477 55.255L44.613 53.006L38.6318 50.4388L37.6665 52.6878L43.6477 55.255Z" fill="#C7C7C7"/>
<path d="M49.8053 40.896L50.771 38.6472L44.7902 36.0789L43.8245 38.3277L49.8053 40.896Z" fill="#C7C7C7"/>
<path d="M48.764 43.3074L49.1372 42.4382L43.1564 39.8699L42.7831 40.7391L48.764 43.3074Z" fill="#C7C7C7"/>
<path d="M222.48 198.215V309.971H290.047V198.215H222.48ZM283.906 268.725H228.614V239.634H283.906V268.725ZM283.906 232.689H228.614V203.613H283.906V232.689Z" fill="#DBDBDB"/>
<path d="M320.588 198.215H290.04V309.971H320.588V198.215Z" fill="#EBEBEB"/>
<path d="M241.752 203.613H228.614V232.704H241.752V203.613Z" fill="#EBEBEB"/>
<path d="M284.094 303.147H228.771V275.031H284.094V303.147ZM229.147 302.771H283.718V275.407H229.147V302.771Z" fill="#EBEBEB"/>
<path d="M261.887 283.019H250.971V287.006H261.887V283.019Z" fill="#EBEBEB"/>
<path d="M241.752 239.634H228.614V268.725H241.752V239.634Z" fill="#EBEBEB"/>
<path d="M276.346 268.725V241.901H267.105V268.725H276.346Z" fill="#A6A6A6"/>
<path d="M276.339 264.416V258.627H267.097V264.416H276.339Z" fill="#DBDBDB"/>
<path d="M276.339 253.973V250.542H267.097V253.973H276.339Z" fill="#DBDBDB"/>
<path d="M268.095 210.257H244.732V232.704H268.095V210.257Z" fill="#EBEBEB"/>
<path d="M276.977 210.257H268.095V232.704H276.977V210.257Z" fill="#C7C7C7"/>
<path d="M244.732 221.481H268.095L249.852 222.059L244.732 221.481Z" fill="#C7C7C7"/>
<path d="M268.095 229.994H244.732L262.975 230.572L268.095 229.994Z" fill="#C7C7C7"/>
<path d="M244.732 215.204H259.529L246.376 215.677L244.732 215.204Z" fill="#C7C7C7"/>
<path d="M268.095 226.691H253.298L266.451 227.164L268.095 226.691Z" fill="#C7C7C7"/>
<path d="M250.34 212.712H267.029L264.244 212.99L250.34 212.712Z" fill="#C7C7C7"/>
<path d="M247.007 223.891H263.696L260.911 224.168L247.007 223.891Z" fill="#C7C7C7"/>
<path d="M257.27 217.344H268.095L270.032 218.102L257.27 217.344Z" fill="#EBEBEB"/>
<path d="M241.752 217.344H252.578L254.515 218.102L241.752 217.344Z" fill="#EBEBEB"/>
<path d="M255.648 227.434H244.815L242.885 228.192L255.648 227.434Z" fill="#EBEBEB"/>
<path d="M268.095 224.874H276.789L278.726 225.625L268.095 224.874Z" fill="#C7C7C7"/>
<path d="M271.128 221.481H277.87L276.977 220.865L271.128 221.481Z" fill="#C7C7C7"/>
<path d="M283.899 240.114H276.339V268.725H283.899V240.114Z" fill="#EBEBEB"/>
<path d="M280.122 245.76C279.811 245.76 279.506 245.667 279.247 245.494C278.987 245.321 278.785 245.075 278.666 244.786C278.547 244.498 278.515 244.181 278.576 243.876C278.637 243.57 278.787 243.289 279.008 243.068C279.228 242.848 279.509 242.698 279.815 242.637C280.121 242.576 280.438 242.607 280.726 242.727C281.014 242.846 281.26 243.048 281.433 243.307C281.607 243.567 281.699 243.871 281.699 244.183C281.699 244.601 281.533 245.002 281.237 245.298C280.942 245.594 280.541 245.76 280.122 245.76Z" fill="white"/>
<path d="M280.122 245.084C279.944 245.084 279.77 245.031 279.622 244.932C279.474 244.833 279.358 244.692 279.29 244.528C279.222 244.363 279.204 244.182 279.239 244.007C279.274 243.833 279.359 243.672 279.485 243.546C279.611 243.42 279.772 243.334 279.947 243.3C280.121 243.265 280.302 243.283 280.467 243.351C280.632 243.419 280.772 243.534 280.871 243.683C280.97 243.831 281.023 244.005 281.023 244.183C281.023 244.422 280.928 244.651 280.759 244.82C280.59 244.989 280.361 245.084 280.122 245.084Z" fill="#A6A6A6"/>
<path d="M283.906 264.213V257.254H276.346V264.213H283.906Z" fill="white"/>
<path d="M267.097 262.824H238.486V268.77H267.097V262.824Z" fill="#C7C7C7"/>
<path d="M261.451 265.797C261.45 265.485 261.541 265.179 261.713 264.919C261.886 264.659 262.132 264.456 262.419 264.335C262.707 264.215 263.025 264.182 263.331 264.242C263.637 264.302 263.919 264.452 264.14 264.672C264.361 264.892 264.512 265.173 264.574 265.479C264.635 265.785 264.604 266.103 264.485 266.391C264.366 266.68 264.164 266.926 263.905 267.1C263.645 267.273 263.34 267.366 263.028 267.366C262.611 267.366 262.211 267.201 261.916 266.907C261.62 266.613 261.453 266.214 261.451 265.797Z" fill="white"/>
<path d="M262.127 265.797C262.127 265.619 262.18 265.445 262.279 265.297C262.378 265.148 262.518 265.033 262.683 264.965C262.848 264.896 263.029 264.879 263.204 264.913C263.378 264.948 263.539 265.034 263.665 265.16C263.791 265.286 263.877 265.446 263.911 265.621C263.946 265.796 263.928 265.977 263.86 266.142C263.792 266.306 263.676 266.447 263.528 266.546C263.38 266.645 263.206 266.698 263.028 266.698C262.789 266.698 262.56 266.603 262.391 266.434C262.222 266.265 262.127 266.036 262.127 265.797Z" fill="#A6A6A6"/>
<path d="M242.991 268.762H249.95V262.817H242.991V268.762Z" fill="white"/>
<path d="M319.694 257.314C312.494 267.073 304.995 278.372 303.178 290.594C303.178 290.782 303.455 290.842 303.493 290.654C304.325 287.331 305.388 284.069 306.676 280.894C311.413 279.588 316.053 278.522 318.538 273.822C321.075 268.995 320.753 262.704 320.272 257.441C320.22 257.141 319.837 257.126 319.694 257.314Z" fill="#263238"/>
<path d="M306.736 280.782C309.972 273.522 314.116 266.24 319.394 260.272C319.394 260.272 319.484 260.272 319.454 260.332C316 264.581 313.373 269.205 310.813 273.913C313.193 271.495 315.805 269.326 318.065 266.765C318.11 266.713 318.178 266.765 318.133 266.833C315.88 269.528 313.448 272.449 310.528 274.438C309.739 275.88 308.951 277.336 308.155 278.785C308.35 278.672 308.553 278.575 308.748 278.477L308.786 278.53C308.561 278.642 308.343 278.762 308.11 278.86L306.969 280.91C306.879 281.067 306.669 280.932 306.736 280.782Z" fill="#263238"/>
<path d="M309.139 278.244C311.075 277.164 312.923 275.931 314.664 274.558C314.709 274.521 314.784 274.558 314.732 274.626C313.044 276.083 311.195 277.342 309.221 278.379C309.204 278.384 309.186 278.383 309.169 278.376C309.153 278.37 309.139 278.358 309.13 278.343C309.12 278.328 309.116 278.31 309.118 278.292C309.119 278.274 309.127 278.258 309.139 278.244Z" fill="#263238"/>
<path d="M302.329 288.777C302.329 288.927 302.6 288.927 302.592 288.777C302.592 284.746 302.592 280.707 302.66 276.66C303.688 274.581 305.903 273.425 307.442 271.758C308.549 270.542 309.511 269.202 310.31 267.764C312.164 264.328 313.299 260.55 313.643 256.66C314.071 252.351 312.434 238.14 310.64 238.643C309.702 238.898 306.654 245.94 305.85 248.26C304.536 252.098 303.576 256.048 302.983 260.061C301.489 269.521 301.609 279.243 302.329 288.777Z" fill="#263238"/>
<path d="M302.284 271.413C302.502 266.315 303.651 261.172 304.724 256.232C305.881 250.91 307.232 245.902 309.98 241.158C309.99 241.14 310.006 241.126 310.026 241.121C310.046 241.115 310.067 241.118 310.085 241.128C310.103 241.137 310.116 241.154 310.122 241.174C310.127 241.194 310.125 241.215 310.115 241.233C308.291 244.925 306.878 248.808 305.903 252.809C306.083 252.524 306.308 252.254 306.496 251.976C306.571 251.871 306.751 251.976 306.676 252.081C306.433 252.512 306.146 252.917 305.82 253.29C305.815 253.292 305.808 253.294 305.802 253.294C305.795 253.294 305.789 253.292 305.783 253.29C304.845 257.096 304.161 260.985 303.583 264.866C303.63 264.82 303.672 264.769 303.711 264.716C303.711 264.716 303.794 264.716 303.771 264.761C303.748 264.806 303.621 265.024 303.546 265.151C303.253 267.118 302.983 269.085 302.705 271.037C306.218 268.034 309.214 264.506 310.903 260.151C309.251 264.656 306.639 268.68 302.645 271.413C302.57 271.938 302.495 272.464 302.427 272.989C302.427 273.094 302.232 273.064 302.232 272.989C302.232 272.531 302.232 272.066 302.277 271.6C302.262 271.589 302.25 271.575 302.242 271.558C302.233 271.541 302.23 271.523 302.23 271.504C302.231 271.486 302.236 271.468 302.246 271.452C302.255 271.436 302.269 271.422 302.284 271.413Z" fill="#263238"/>
<path d="M303.951 264.033C306.694 260.149 309.086 256.029 311.098 251.721C311.098 251.676 311.211 251.721 311.188 251.758C309.584 256.278 307.179 260.472 304.086 264.138C304.026 264.205 303.899 264.115 303.951 264.033Z" fill="#263238"/>
<path d="M307.54 250.737C308.651 248.77 309.792 246.856 310.865 244.859C310.865 244.799 310.971 244.859 310.948 244.904C310.093 246.995 309.007 248.984 307.712 250.835C307.615 250.962 307.45 250.85 307.54 250.737Z" fill="#263238"/>
<path d="M299.604 277.133C299.552 279.803 299.238 282.461 298.666 285.069C298.711 285.354 298.748 285.639 298.793 285.939C299.613 283.058 300.089 280.089 300.212 277.096C300.236 277.055 300.248 277.008 300.248 276.961C300.248 276.913 300.236 276.867 300.212 276.825C300.326 272.814 300.029 268.802 299.326 264.851C298.08 257.449 295.355 250.354 290.197 244.806C290.155 244.77 290.104 244.743 290.049 244.729C289.995 244.715 289.938 244.714 289.882 244.726C289.827 244.737 289.776 244.762 289.731 244.796C289.687 244.831 289.651 244.876 289.627 244.926C287.54 250.219 288.268 256.533 290.04 261.818C291.006 264.678 292.384 267.382 294.131 269.844C295.911 272.313 298.17 274.416 299.604 277.133Z" fill="#263238"/>
<path d="M290.813 247.269C295.701 255.204 299.071 264.618 299.522 273.988C299.522 274.153 299.252 274.198 299.229 274.033C299.109 273.184 298.981 272.351 298.846 271.518C296.719 269.64 294.853 267.487 293.298 265.114C293.298 265.076 293.336 265.024 293.366 265.061C295.046 267.12 296.846 269.078 298.756 270.925C298.403 268.853 298.005 266.818 297.502 264.806C297.367 264.656 297.24 264.498 297.112 264.348C296.984 264.198 297.172 264.108 297.255 264.205L297.375 264.333C296.685 261.58 295.833 258.87 294.822 256.218C293.576 254.716 292.18 253.447 291.279 251.661L291.339 251.623C292.089 252.644 292.773 253.673 293.591 254.626C293.921 255.001 294.289 255.377 294.627 255.722C293.5 252.847 292.163 250.059 290.625 247.381C290.618 247.357 290.619 247.331 290.628 247.308C290.637 247.284 290.653 247.264 290.675 247.251C290.697 247.238 290.722 247.233 290.747 247.236C290.772 247.239 290.795 247.251 290.813 247.269Z" fill="#263238"/>
<path d="M291.774 257.058C293.351 259.183 295.152 261.217 296.624 263.417C296.661 263.477 296.571 263.545 296.519 263.492C294.645 261.575 293.013 259.434 291.661 257.118C291.654 257.051 291.774 256.968 291.774 257.058Z" fill="#263238"/>
<path d="M296.872 263.905L296.939 263.973C296.984 264.018 296.939 264.093 296.872 264.048L296.804 263.98C296.752 263.935 296.827 263.86 296.872 263.905Z" fill="#263238"/>
<path d="M283.148 262.524C283.728 266.957 285.514 271.146 288.313 274.633C289.465 276.001 290.889 277.113 292.495 277.899C294.311 278.792 296.203 279.828 298.08 280.564C298.972 282.832 299.633 285.184 300.055 287.584C300.115 287.381 300.175 287.171 300.242 286.961C299.034 276.63 292.345 267.794 283.786 262.118C283.719 262.077 283.642 262.055 283.563 262.056C283.484 262.057 283.407 262.079 283.34 262.122C283.274 262.164 283.22 262.224 283.186 262.295C283.152 262.366 283.139 262.445 283.148 262.524Z" fill="#263238"/>
<path d="M286.106 265.579C286.046 265.527 286.106 265.422 286.196 265.467C290.898 268.962 294.646 273.583 297.097 278.905C297.157 279.048 296.969 279.168 296.887 279.025C296.489 278.334 296.083 277.651 295.67 276.991C293.719 276.623 291.872 275.249 290.415 273.943C290.378 273.905 290.415 273.853 290.475 273.883C291.222 274.562 292.052 275.145 292.945 275.617C293.741 276.022 294.604 276.277 295.43 276.6C294.679 275.452 293.929 274.348 293.178 273.282C291.069 272.48 289.09 271.369 287.307 269.986C287.255 269.941 287.307 269.851 287.367 269.889C289.134 270.953 290.953 271.928 292.818 272.809C291.627 271.23 290.341 269.726 288.966 268.305C288.306 267.959 287.63 267.606 286.992 267.231C286.939 267.231 286.992 267.111 286.992 267.133C287.521 267.322 288.025 267.574 288.493 267.884C287.758 267.103 286.962 266.33 286.106 265.579Z" fill="#263238"/>
<path d="M286.294 269.153C286.406 269.224 286.514 269.301 286.617 269.386C286.654 269.386 286.616 269.453 286.579 269.438C286.457 269.385 286.342 269.32 286.234 269.243C286.174 269.205 286.234 269.108 286.294 269.153Z" fill="#263238"/>
<path d="M313.591 309.971H290.145L292.037 288.62L292.457 283.912H311.286L311.699 288.62L313.591 309.971Z" fill="#455A64"/>
<path d="M311.699 288.62H292.037L292.457 283.912H311.286L311.699 288.62Z" fill="#263238"/>
<path d="M312.404 280.617H291.331V285.279H312.404V280.617Z" fill="#455A64"/>
<path d="M99.8538 228.695C96.528 230.662 93.1722 232.569 89.8089 234.461C86.4455 236.353 83.0522 238.215 79.6813 240.069C76.3105 241.923 72.9246 243.748 69.4787 245.549L64.3512 248.237C62.6319 249.108 60.9203 250.009 59.186 250.865C60.8452 249.874 62.5268 248.92 64.1935 247.944L69.231 245.091C72.5943 243.2 75.9877 241.338 79.3585 239.483C82.7294 237.629 86.1152 235.812 89.5611 234.011C93.007 232.209 96.4004 230.422 99.8538 228.695Z" fill="#DBDBDB"/>
<path d="M62.0464 228.695C65.2596 230.197 68.4427 231.818 71.6109 233.425C74.779 235.032 77.9321 236.691 81.1003 238.32C84.2684 239.949 87.384 241.646 90.5071 243.35L95.1917 245.91C96.7383 246.788 98.2998 247.644 99.8388 248.537C98.2247 247.787 96.6407 246.983 95.0341 246.203L90.2669 243.808C87.0987 242.201 83.9456 240.542 80.785 238.913C77.6243 237.284 74.5012 235.587 71.3781 233.883C68.255 232.179 65.147 230.467 62.0464 228.695Z" fill="#DBDBDB"/>
<path d="M138.232 228.695C134.914 230.662 131.558 232.569 128.194 234.461C124.831 236.353 121.438 238.215 118.059 240.069C114.681 241.923 111.303 243.748 107.857 245.549L102.729 248.237C101.01 249.108 99.2982 250.009 97.5715 250.865C99.2307 249.874 100.905 248.92 102.571 247.944L107.609 245.091C110.972 243.2 114.366 241.338 117.744 239.483C121.122 237.629 124.501 235.812 127.947 234.011C131.393 232.209 134.778 230.422 138.232 228.695Z" fill="#DBDBDB"/>
<path d="M100.439 228.695C103.653 230.197 106.836 231.818 110.011 233.425C113.187 235.032 116.333 236.691 119.493 238.32C122.654 239.949 125.785 241.646 128.908 243.35L133.585 245.91C135.139 246.788 136.693 247.644 138.232 248.537C136.625 247.787 135.034 246.983 133.435 246.203L128.667 243.808C125.492 242.201 122.346 240.542 119.186 238.913C116.025 237.284 112.894 235.587 109.771 233.883C106.648 232.179 103.525 230.467 100.439 228.695Z" fill="#DBDBDB"/>
<path d="M131.22 223.38L133.247 235.58L147.023 309.971H149.245L139.23 235.58L137.751 223.38H131.22Z" fill="#DBDBDB"/>
<path d="M137.751 223.38H131.22L133.247 235.58H139.23L137.751 223.38Z" fill="#C7C7C7"/>
<path d="M87.9546 309.971H90.1768L103.953 235.58L105.987 223.38H99.456L97.977 235.58L87.9546 309.971Z" fill="#DBDBDB"/>
<path d="M99.456 223.38L97.9771 235.58H103.953L105.987 223.38H99.456Z" fill="#C7C7C7"/>
<path d="M46.6335 309.971H48.8557L62.6319 235.58L64.6664 223.38H58.1349L56.656 235.58L46.6335 309.971Z" fill="#DBDBDB"/>
<path d="M56.656 235.58H62.6319L64.6664 223.38H58.135L56.656 235.58Z" fill="#C7C7C7"/>
<path d="M50.1545 229.108H151.1V218.478H113.315L100.612 136.722H54.0059L50.1545 229.108Z" fill="#DBDBDB"/>
<path d="M50.1545 229.108H55.6575L59.246 136.722H54.0059L50.1545 229.108Z" fill="#C7C7C7"/>
<path d="M38.4655 263.575H20.4326V266.743H38.4655V263.575Z" fill="#455A64"/>
<path d="M48.2475 309.971H46.2956L30.4173 235.827L29.5089 231.601L26.6561 218.29L25.5976 213.327L21.5961 194.702L20.1997 188.178H27.1366L28.2702 194.702L29.0134 198.981L29.5089 201.834L32.3543 218.29L33.2777 223.583L48.2475 309.971Z" fill="#455A64"/>
<path d="M27.1366 188.178L28.2702 194.702H21.5961L20.1997 188.178H27.1366Z" fill="#263238"/>
<path d="M33.2778 223.583L30.4174 235.827L29.509 231.601L26.6562 218.29L25.5977 213.327L29.0135 198.981L29.509 201.834L32.3544 218.29L33.2778 223.583Z" fill="#263238"/>
<path d="M38.8108 188.178L37.4144 194.702L32.3544 218.29L29.5091 231.601L12.7149 309.971H10.7705L26.6563 218.29L29.5091 201.834L30.7403 194.702L31.8739 188.178H38.8108Z" fill="#455A64"/>
<path d="M38.8107 188.178L37.4143 194.702H30.7402L31.8739 188.178H38.8107Z" fill="#263238"/>
<path d="M200.258 263.575H182.225V266.743H200.258V263.575Z" fill="#455A64"/>
<path d="M210.04 309.971H208.089L192.21 235.827L191.302 231.601L188.449 218.29L187.391 213.327L183.389 194.702L181.993 188.178H188.93L190.063 194.702L190.806 198.981L191.302 201.834L194.147 218.29L195.071 223.583L210.04 309.971Z" fill="#455A64"/>
<path d="M188.93 188.178L190.063 194.702H183.389L181.993 188.178H188.93Z" fill="#263238"/>
<path d="M195.071 223.583L192.21 235.827L191.302 231.601L188.449 218.29L187.39 213.327L190.806 198.981L191.302 201.834L194.147 218.29L195.071 223.583Z" fill="#263238"/>
<path d="M200.604 188.178L199.207 194.702L194.147 218.29L191.302 231.601L174.508 309.971H172.563L188.449 218.29L191.302 201.834L192.533 194.702L193.667 188.178H200.604Z" fill="#455A64"/>
<path d="M200.603 188.178L199.207 194.702H192.533L193.667 188.178H200.603Z" fill="#263238"/>
<path d="M214.117 183.41H6.69385V188.178H214.117V183.41Z" fill="#455A64"/>
<path d="M220.611 174.304H0.199951V183.41H220.611V174.304Z" fill="#37474F"/>
<path d="M18.0227 173.853H50.3647L50.3647 142.78H18.0227L18.0227 173.853Z" fill="#EBEBEB"/>
<path d="M5.73303 173.853H18.0227L18.0227 142.78H5.73303L5.73303 173.853Z" fill="#C7C7C7"/>
<path d="M50.3648 158.313H18.0227L43.2777 159.116L50.3648 158.313Z" fill="#C7C7C7"/>
<path d="M18.0227 170.1H50.3648L25.1097 170.903L18.0227 170.1Z" fill="#C7C7C7"/>
<path d="M50.3648 149.627H29.877L48.09 150.28L50.3648 149.627Z" fill="#C7C7C7"/>
<path d="M18.0227 165.528H38.5105L20.2975 166.181L18.0227 165.528Z" fill="#C7C7C7"/>
<path d="M42.6096 146.173H19.5017L23.353 146.564L42.6096 146.173Z" fill="#C7C7C7"/>
<path d="M47.219 161.646H24.1187L27.97 162.037L47.219 161.646Z" fill="#C7C7C7"/>
<path d="M33.0151 152.592H18.0227L15.3501 153.636L33.0151 152.592Z" fill="#EBEBEB"/>
<path d="M54.4939 152.592H39.5015L36.8289 153.636L54.4939 152.592Z" fill="#DBDBDB"/>
<path d="M35.2598 166.556H50.2446L52.9248 167.6L35.2598 166.556Z" fill="#DBDBDB"/>
<path d="M18.0227 163.013H5.98826L3.30811 164.056L18.0227 163.013Z" fill="#C7C7C7"/>
<path d="M13.8261 158.313H4.48682L5.73305 157.465L13.8261 158.313Z" fill="#C7C7C7"/>
<path d="M315.738 16.5951H150.687V235.82H315.738V16.5951Z" fill="#263238"/>
<g opacity="0.1">
<path d="M315.738 16.5951H150.687V235.82H315.738V16.5951Z" fill="#020100"/>
</g>
<path d="M311.248 16.5951H146.197V235.82H311.248V16.5951Z" fill="#263238"/>
<path d="M301.862 25.3457L156.17 27.202L158.686 224.699L304.379 222.843L301.862 25.3457Z" fill="#EBEBEB"/>
<path d="M157.352 24.7308L153.078 222.198L298.748 225.351L303.023 27.8839L157.352 24.7308Z" fill="#DBDBDB"/>
<path d="M300.888 26.2722H155.183V223.785H300.888V26.2722Z" fill="white"/>
<path d="M187.533 86.1139C183.644 86.2115 176.099 86.3617 172.21 86.4067C172.128 81.9023 172.15 75.6035 172.113 71.069V70.6937H172.488C177.045 70.7387 183.329 70.6937 187.826 70.7838C187.773 74.6801 187.638 82.2251 187.533 86.1139ZM187.533 86.1139C187.435 82.3602 187.3 74.8528 187.248 71.0991L187.533 71.3843C183.186 71.4369 176.903 71.4519 172.518 71.4744L172.894 71.0991C172.894 75.536 172.856 81.7671 172.803 86.1139L172.518 85.8287C176.272 85.8737 183.817 86.0239 187.533 86.1139Z" fill="#C7C7C7"/>
<path d="M195.528 73.6441C206.557 73.1336 217.675 73.1336 228.704 73.6441C217.668 74.1621 206.557 74.1546 195.528 73.6441Z" fill="#C7C7C7"/>
<path d="M195.528 77.2702C223.816 76.7672 255.265 76.7822 283.576 77.2702C255.258 77.7507 223.824 77.7657 195.528 77.2702Z" fill="#C7C7C7"/>
<path d="M173.599 77.8107C174.155 78.2762 174.68 78.7567 175.206 79.2447C175.731 79.7326 176.234 80.2356 176.707 80.7461C177.721 81.7446 178.697 82.7731 179.658 83.8167L177.938 83.9293C179.304 81.0697 180.869 78.3101 182.623 75.6711C183.494 74.3598 184.42 73.0785 185.401 71.8273C186.391 70.5632 187.464 69.3668 188.614 68.2462C188.155 69.7836 187.593 71.2884 186.932 72.7507C186.294 74.1996 185.588 75.6186 184.83 76.9999C183.317 79.7705 181.617 82.4343 179.74 84.9728L178.794 86.2341L178.044 85.0854C177.248 83.9068 176.467 82.7206 175.716 81.5119C175.356 80.8963 174.965 80.2957 174.62 79.6726C174.275 79.0495 173.907 78.4564 173.599 77.8107Z" fill="#263238"/>
<path d="M187.533 114.327C183.644 114.425 176.099 114.575 172.21 114.62C172.128 110.115 172.15 103.824 172.113 99.282V98.9067H172.488C177.045 98.9517 183.329 98.9067 187.826 99.0043C187.773 102.901 187.638 110.438 187.533 114.327ZM187.533 114.327C187.435 110.573 187.3 103.066 187.248 99.3121L187.533 99.6049C183.186 99.6574 176.903 99.6649 172.518 99.6874L172.894 99.3121C172.894 103.749 172.856 109.988 172.803 114.327L172.518 114.042C176.272 114.087 183.817 114.237 187.533 114.327Z" fill="#C7C7C7"/>
<path d="M195.528 101.835C206.557 101.324 217.675 101.317 228.704 101.835C217.668 102.345 206.557 102.345 195.528 101.835Z" fill="#C7C7C7"/>
<path d="M195.528 105.453C223.816 104.958 255.265 104.965 283.576 105.453C255.258 105.941 223.824 105.956 195.528 105.453Z" fill="#C7C7C7"/>
<path d="M173.599 105.994C174.155 106.459 174.68 106.94 175.206 107.428C175.731 107.916 176.234 108.419 176.707 108.929C177.721 109.935 178.697 110.964 179.658 112.007L177.938 112.112C179.307 109.269 180.872 106.524 182.623 103.899C183.494 102.588 184.42 101.307 185.401 100.055C186.389 98.7896 187.462 97.5931 188.614 96.4742C188.155 98.0117 187.593 99.5165 186.932 100.979C186.294 102.435 185.588 103.847 184.83 105.235C183.317 108.004 181.617 110.665 179.74 113.201L178.794 114.47L178.044 113.313C177.248 112.142 176.467 110.956 175.716 109.74C175.356 109.124 174.965 108.524 174.62 107.901C174.275 107.277 173.907 106.639 173.599 105.994Z" fill="#263238"/>
<path d="M187.533 142.487C183.644 142.585 176.099 142.735 172.21 142.78C172.128 138.276 172.15 131.977 172.113 127.442V127.09H172.488C177.045 127.135 183.329 127.09 187.826 127.18C187.773 131.076 187.638 138.614 187.533 142.51V142.487ZM187.533 142.487C187.435 138.734 187.3 131.226 187.248 127.472L187.533 127.758C183.186 127.81 176.903 127.825 172.518 127.848L172.894 127.472C172.894 131.909 172.856 138.141 172.803 142.487L172.518 142.202C176.272 142.247 183.817 142.397 187.533 142.487Z" fill="#C7C7C7"/>
<path d="M195.528 130.017C206.557 129.507 217.675 129.507 228.704 130.017C217.668 130.528 206.557 130.528 195.528 130.017Z" fill="#C7C7C7"/>
<path d="M195.528 133.644C223.816 133.141 255.265 133.156 283.576 133.644C255.258 134.124 223.824 134.139 195.528 133.644Z" fill="#C7C7C7"/>
<path d="M187.533 170.67C183.644 170.768 176.099 170.918 172.21 170.963C172.128 166.459 172.15 160.167 172.113 155.625V155.25H172.488C177.045 155.295 183.329 155.25 187.826 155.348C187.773 159.236 187.638 166.781 187.533 170.67ZM187.533 170.67C187.435 166.917 187.3 159.409 187.248 155.655L187.533 155.948C183.186 156.001 176.903 156.008 172.518 156.031L172.894 155.655C172.894 160.092 172.856 166.331 172.803 170.67L172.518 170.385C176.272 170.43 183.817 170.58 187.533 170.67Z" fill="#C7C7C7"/>
<path d="M195.528 158.208C206.557 157.69 217.675 157.69 228.704 158.208C217.668 158.718 206.557 158.718 195.528 158.208Z" fill="#C7C7C7"/>
<path d="M195.528 161.826C223.816 161.331 255.265 161.338 283.576 161.826C255.258 162.314 223.824 162.329 195.528 161.826Z" fill="#C7C7C7"/>
<path d="M187.533 198.861C183.644 198.958 176.099 199.101 172.21 199.153C172.128 194.649 172.15 188.35 172.113 183.816V183.44H172.488C177.045 183.485 183.329 183.44 187.826 183.531C187.773 187.427 187.638 194.964 187.533 198.861ZM187.533 198.861C187.435 195.107 187.3 187.562 187.248 183.846L187.533 184.131C183.186 184.184 176.903 184.199 172.518 184.221L172.894 183.846C172.894 188.283 172.856 194.514 172.803 198.861L172.518 198.575C176.272 198.62 183.817 198.771 187.533 198.861Z" fill="#C7C7C7"/>
<path d="M195.528 186.398C206.557 185.888 217.675 185.888 228.704 186.398C217.668 186.909 206.557 186.909 195.528 186.398Z" fill="#C7C7C7"/>
<path d="M195.528 190.017C223.816 189.514 255.265 189.529 283.576 190.017C255.258 190.497 223.824 190.512 195.528 190.017Z" fill="#C7C7C7"/>
<path d="M214.335 47.2705H212.315V54.0271C212.315 54.2123 212.242 54.3899 212.111 54.5208C211.98 54.6518 211.802 54.7253 211.617 54.7253C211.432 54.7253 211.254 54.6518 211.123 54.5208C210.992 54.3899 210.919 54.2123 210.919 54.0271V47.2705H208.907C208.721 47.2685 208.543 47.1933 208.413 47.0611C208.282 46.929 208.209 46.7506 208.209 46.5647C208.208 46.4728 208.225 46.3815 208.26 46.2964C208.294 46.2112 208.346 46.1338 208.411 46.0688C208.476 46.0038 208.553 45.9524 208.638 45.9177C208.724 45.8829 208.815 45.8656 208.907 45.8666H214.335C214.427 45.8656 214.518 45.8829 214.603 45.9177C214.688 45.9524 214.766 46.0038 214.831 46.0688C214.896 46.1338 214.947 46.2112 214.982 46.2964C215.016 46.3815 215.034 46.4728 215.033 46.5647C215.022 46.7472 214.946 46.9195 214.817 47.0495C214.688 47.1794 214.517 47.258 214.335 47.2705Z" fill="#263238"/>
<path d="M220.453 52.6608H217.368L216.744 54.3124C216.692 54.4441 216.6 54.5568 216.483 54.6359C216.365 54.7149 216.226 54.7565 216.084 54.7554C216.002 54.7551 215.921 54.7425 215.844 54.7178C215.672 54.6445 215.535 54.5102 215.457 54.3409C215.379 54.1717 215.367 53.9796 215.423 53.8019L218.231 46.2945C218.29 46.1639 218.384 46.0529 218.504 45.9744C218.624 45.8959 218.764 45.8533 218.907 45.8516C219.05 45.8533 219.189 45.8959 219.309 45.9744C219.429 46.0529 219.524 46.1639 219.582 46.2945L222.39 53.8019C222.446 53.9796 222.434 54.1717 222.356 54.3409C222.279 54.5102 222.141 54.6445 221.97 54.7178C221.892 54.7425 221.811 54.7551 221.729 54.7554C221.588 54.7571 221.45 54.7156 221.333 54.6364C221.217 54.5572 221.127 54.4441 221.076 54.3124L220.453 52.6608ZM219.935 51.2644L218.907 48.5317L217.878 51.2644H219.935Z" fill="#263238"/>
<path d="M223.629 52.5482C223.684 52.4811 223.752 52.4255 223.829 52.3846C223.905 52.3438 223.989 52.3184 224.076 52.3101C224.162 52.3017 224.249 52.3105 224.332 52.3359C224.416 52.3613 224.493 52.4028 224.56 52.4581C225.24 53.0384 226.092 53.381 226.985 53.4341C227.552 53.4473 228.109 53.2819 228.576 52.9611C228.733 52.8645 228.864 52.7314 228.958 52.5733C229.052 52.4151 229.107 52.2365 229.117 52.0527C229.12 51.9071 229.081 51.7636 229.004 51.6398C228.906 51.4877 228.775 51.3595 228.621 51.2644C228.084 50.9625 227.496 50.7591 226.887 50.6638C226.322 50.5701 225.772 50.4035 225.25 50.1683C224.769 49.9569 224.358 49.6133 224.064 49.1774C223.873 48.8632 223.774 48.5015 223.779 48.1338C223.791 47.7671 223.89 47.4083 224.066 47.0863C224.242 46.7643 224.491 46.488 224.793 46.2795C225.439 45.8349 226.208 45.6015 226.992 45.6113C227.997 45.6624 228.962 46.0157 229.762 46.6248C229.904 46.7222 230.001 46.8713 230.034 47.0399C230.066 47.2085 230.03 47.383 229.935 47.5257C229.89 47.5991 229.831 47.6627 229.76 47.7125C229.69 47.7623 229.611 47.7974 229.526 47.8156C229.442 47.8339 229.355 47.8349 229.271 47.8186C229.186 47.8023 229.106 47.7691 229.034 47.7209C228.454 47.245 227.741 46.9593 226.992 46.9026C226.483 46.8953 225.984 47.0476 225.566 47.338C225.427 47.4218 225.311 47.538 225.227 47.6766C225.144 47.8152 225.095 47.9722 225.085 48.1338C225.077 48.2604 225.108 48.3866 225.175 48.4942C225.265 48.626 225.379 48.7383 225.513 48.8245C226.004 49.1082 226.544 49.2967 227.105 49.3801C227.71 49.4856 228.3 49.6646 228.862 49.9131C229.375 50.1403 229.815 50.5071 230.13 50.9716C230.331 51.2967 230.437 51.6709 230.438 52.0527C230.426 52.4442 230.32 52.8271 230.129 53.1693C229.938 53.5114 229.668 53.803 229.342 54.0197C228.658 54.513 227.835 54.7759 226.992 54.7704C225.798 54.7168 224.656 54.2708 223.741 53.5016C223.671 53.4467 223.612 53.3783 223.569 53.3005C223.525 53.2228 223.497 53.137 223.486 53.0484C223.476 52.9597 223.483 52.8699 223.508 52.784C223.532 52.6982 223.573 52.618 223.629 52.5482Z" fill="#263238"/>
<path d="M232.383 54.0572V46.6248C232.383 46.4397 232.456 46.2621 232.587 46.1311C232.718 46.0002 232.896 45.9266 233.081 45.9266C233.266 45.9266 233.444 46.0002 233.574 46.1311C233.705 46.2621 233.779 46.4397 233.779 46.6248V50.2734L237.893 46.1444C237.957 46.0781 238.034 46.0254 238.12 45.9894C238.205 45.9534 238.296 45.9348 238.389 45.9348C238.481 45.9348 238.572 45.9534 238.657 45.9894C238.743 46.0254 238.82 46.0781 238.884 46.1444C239.014 46.2764 239.087 46.4544 239.087 46.6398C239.087 46.8253 239.014 47.0033 238.884 47.1353L236.091 49.9131L238.914 53.6143C238.974 53.6842 239.018 53.7655 239.045 53.8533C239.073 53.9411 239.081 54.0335 239.072 54.1249C239.062 54.2162 239.033 54.3046 238.988 54.3846C238.943 54.4646 238.882 54.5346 238.809 54.5902C238.687 54.6987 238.529 54.7576 238.366 54.7554C238.266 54.7532 238.168 54.7293 238.079 54.6852C237.989 54.6411 237.91 54.5779 237.848 54.5001L235.1 50.9041L233.779 52.2554V54.0572C233.779 54.2424 233.705 54.42 233.574 54.5509C233.444 54.6818 233.266 54.7554 233.081 54.7554C232.896 54.7554 232.718 54.6818 232.587 54.5509C232.456 54.42 232.383 54.2424 232.383 54.0572Z" fill="#263238"/>
<path d="M241.061 52.5482C241.115 52.4805 241.182 52.4242 241.258 52.3829C241.334 52.3415 241.418 52.3159 241.504 52.3075C241.59 52.2991 241.677 52.3081 241.759 52.334C241.842 52.3598 241.919 52.4021 241.985 52.4581C242.666 53.0374 243.517 53.3799 244.409 53.4341C244.976 53.4473 245.533 53.2819 246.001 52.9611C246.16 52.8659 246.292 52.7333 246.388 52.575C246.483 52.4166 246.539 52.2373 246.549 52.0527C246.553 51.9059 246.511 51.7616 246.429 51.6398C246.332 51.4895 246.204 51.3615 246.054 51.2644C245.514 50.9613 244.924 50.7579 244.312 50.6638C243.747 50.5701 243.197 50.4035 242.675 50.1683C242.195 49.9586 241.786 49.6144 241.497 49.1774C241.3 48.8653 241.198 48.5027 241.204 48.1338C241.216 47.7671 241.314 47.4083 241.49 47.0863C241.666 46.7643 241.915 46.488 242.217 46.2795C242.864 45.8349 243.632 45.6015 244.417 45.6113C245.422 45.661 246.388 46.0144 247.187 46.6248C247.333 46.7244 247.432 46.8776 247.465 47.0508C247.497 47.2239 247.459 47.4029 247.36 47.5482C247.26 47.6936 247.107 47.7934 246.934 47.8258C246.761 47.8582 246.582 47.8205 246.436 47.7209C245.856 47.245 245.143 46.9593 244.394 46.9026C243.885 46.8953 243.386 47.0476 242.968 47.338C242.831 47.4232 242.716 47.5397 242.632 47.6781C242.548 47.8164 242.499 47.9726 242.488 48.1338C242.483 48.2601 242.514 48.3851 242.578 48.4942C242.67 48.6259 242.787 48.7382 242.923 48.8245C243.411 49.1083 243.949 49.2968 244.507 49.3801C245.11 49.4866 245.697 49.6656 246.256 49.9131C246.77 50.1403 247.209 50.5071 247.525 50.9716C247.729 51.2953 247.835 51.6704 247.833 52.0527C247.82 52.4442 247.714 52.8271 247.524 53.1693C247.333 53.5114 247.063 53.803 246.737 54.0197C246.054 54.5139 245.23 54.777 244.387 54.7704C243.194 54.7135 242.052 54.2679 241.136 53.5016C241.068 53.4446 241.011 53.3744 240.97 53.2953C240.929 53.2161 240.905 53.1296 240.898 53.0407C240.891 52.9519 240.902 52.8625 240.93 52.778C240.958 52.6934 241.002 52.6152 241.061 52.5482Z" fill="#263238"/>
<path d="M262.923 12.5936H191.354V34.4102H262.923V12.5936Z" fill="#C7C7C7"/>
<path d="M249.019 0.664276H204.605L202.638 12.5936H251.647L249.019 0.664276ZM227.135 9.22276C226.617 9.22276 226.11 9.06909 225.679 8.78119C225.248 8.49329 224.912 8.08409 224.714 7.60533C224.516 7.12657 224.464 6.59976 224.565 6.09151C224.666 5.58326 224.916 5.1164 225.282 4.74997C225.648 4.38355 226.115 4.13401 226.624 4.03291C227.132 3.93181 227.659 3.9837 228.137 4.18201C228.616 4.38032 229.025 4.71614 229.313 5.14701C229.601 5.57789 229.755 6.08445 229.755 6.60266C229.756 6.94701 229.689 7.28817 229.557 7.6065C229.426 7.92483 229.233 8.21406 228.99 8.45756C228.746 8.70106 228.457 8.89401 228.139 9.02533C227.82 9.15665 227.479 9.22375 227.135 9.22276Z" fill="#C7C7C7"/>
<path d="M251.647 12.5936H202.638L203.081 9.92847H251.053L251.647 12.5936Z" fill="#A6A6A6"/>
<path d="M0.199951 309.971C102.827 309.513 217.961 309.505 320.587 309.971C217.961 310.436 102.827 310.429 0.199951 309.971Z" fill="#263238"/>
<path d="M152.646 309.963C150.814 310.564 98.4573 309.896 96.4829 308.597C95.7321 308.124 95.3793 300.489 95.2216 291.255V290.962C95.1841 289.063 95.1616 287.096 95.1541 285.114C95.1541 284.836 95.1541 284.566 95.1541 284.295L97.6841 257.133L132.706 257.471L129.26 284.378L129.215 285.444L129.005 291.015V291.585C129.005 291.585 148.93 300.804 150.949 302.456C152.969 304.107 154.485 309.385 152.646 309.963Z" fill="#AD6359"/>
<path d="M152.646 309.963C150.814 310.564 98.4573 309.896 96.4829 308.597C95.7321 308.124 95.3793 300.489 95.2216 291.255V290.962C95.1841 289.063 95.1616 287.096 95.1541 285.114C95.1541 284.836 95.1541 284.566 95.1541 284.295L129.26 284.378L129.215 285.444L129.005 291.015V291.585C129.005 291.585 148.93 300.804 150.949 302.456C152.969 304.107 154.485 309.385 152.646 309.963Z" fill="#EBEBEB"/>
<path d="M152.653 309.963C151.708 310.271 137.488 310.241 123.585 309.963C120.784 309.903 118.007 309.843 115.326 309.768C105.409 309.498 97.2185 309.092 96.4603 308.597C95.702 308.101 95.3567 300.699 95.2065 291.638C95.2065 291.51 95.2065 291.382 95.2065 291.255C95.2065 291.127 95.2065 291.052 95.2065 290.954H95.2441L128.983 291.015V291.585C128.983 291.585 148.915 300.804 150.934 302.448C152.954 304.092 154.485 309.378 152.653 309.963Z" fill="#263238"/>
<path d="M152.083 307.929C143.262 307.598 107.646 307.103 98.9003 307.448C98.8252 307.448 98.8252 307.501 98.9003 307.508C107.639 308.026 143.254 308.259 152.083 308.071C152.271 308.071 152.271 307.936 152.083 307.929Z" fill="#263238"/>
<path d="M132.759 291.157C129.298 290.466 125.041 290.947 122.354 293.409C122.248 293.507 122.354 293.65 122.504 293.62C125.834 292.591 129.264 291.921 132.736 291.623C132.798 291.626 132.858 291.604 132.904 291.562C132.95 291.521 132.977 291.463 132.98 291.401C132.983 291.339 132.962 291.279 132.92 291.233C132.879 291.187 132.821 291.16 132.759 291.157Z" fill="#263238"/>
<path d="M135.244 292.704C131.783 292.013 127.526 292.486 124.846 294.956C124.741 295.054 124.846 295.204 124.989 295.166C128.321 294.137 131.754 293.467 135.229 293.169C135.29 293.171 135.35 293.149 135.395 293.106C135.44 293.064 135.467 293.006 135.469 292.944C135.471 292.882 135.448 292.822 135.406 292.777C135.364 292.732 135.305 292.706 135.244 292.704Z" fill="#263238"/>
<path d="M137.736 294.243C134.268 293.552 130.019 294.032 127.331 296.495C127.226 296.593 127.331 296.735 127.474 296.705C130.805 295.673 134.238 295.003 137.714 294.708C137.775 294.711 137.836 294.689 137.882 294.648C137.927 294.606 137.955 294.548 137.958 294.487C137.961 294.425 137.939 294.365 137.898 294.319C137.856 294.273 137.798 294.246 137.736 294.243Z" fill="#263238"/>
<path d="M123.607 309.963C120.807 309.903 118.029 309.843 115.349 309.768C105.432 309.498 97.241 309.092 96.4827 308.597C95.7245 308.101 95.3792 300.699 95.229 291.638C95.229 291.51 95.229 291.382 95.229 291.255C95.229 291.127 95.229 291.052 95.229 290.954H95.2665C99.8836 294.198 116.175 305.016 123.607 309.963Z" fill="#263238"/>
<path d="M131.017 291.135H93.3148C93.3148 291.135 100.882 203.065 100.589 201.526C100.214 199.559 97.9844 190.648 95.019 179.003C94.088 175.355 93.082 171.451 92.016 167.397C89.2007 156.444 86.1001 144.469 83.3974 134.049C79.3359 118.441 76.1753 110.401 76.1753 110.401H108.127C108.127 110.401 134.403 185.61 135.447 201.15C136.37 214.709 131.017 291.135 131.017 291.135Z" fill="#263238"/>
<path d="M129.343 284.701C123.585 284.581 125.244 284.536 119.486 284.476C116.663 284.476 98.1421 284.295 95.5069 284.731C95.4544 284.731 95.4544 284.836 95.5069 284.851C98.1421 285.286 116.663 285.121 119.486 285.091C125.244 285.031 123.585 284.986 129.343 284.866C129.365 284.866 129.386 284.857 129.401 284.842C129.417 284.826 129.426 284.805 129.426 284.783C129.426 284.761 129.417 284.74 129.401 284.725C129.386 284.709 129.365 284.701 129.343 284.701Z" fill="#37474F"/>
<path d="M107.684 196.158C106.445 190.708 104.598 185.37 102.984 180.017C99.7159 169.146 96.4252 158.283 93.1119 147.427C91.4602 141.999 83.7951 121.684 83.0369 118.982C82.7291 117.885 82.5639 118.486 82.9618 119.882C83.7576 122.698 96.8506 162.968 100.169 174.004C101.831 179.539 103.495 185.07 105.161 190.595C106.003 193.227 106.685 195.907 107.203 198.62C107.647 201.461 107.758 204.343 107.534 207.209C107.173 212.975 106.505 218.74 105.98 224.476L104.381 241.743C103.319 253.225 102.268 264.703 101.227 276.18C101.1 277.636 100.972 279.085 100.86 280.542C100.86 281.03 101.558 280.992 101.61 280.542C102.849 269.19 103.802 257.802 104.861 246.435C105.92 235.069 106.978 223.815 108.029 212.502C108.299 209.664 108.6 206.819 108.6 203.966C108.585 201.337 108.278 198.718 107.684 196.158Z" fill="#37474F"/>
<path d="M104.531 110.401C102.279 127.563 98.097 155.663 95.019 179.011C87.8043 150.723 76.2053 110.408 76.2053 110.408L104.531 110.401Z" fill="#37474F"/>
<path d="M113.66 310.481C111.821 311.082 59.4636 310.601 57.4892 309.318C56.7384 308.845 56.348 301.21 56.1604 291.975V291.683C56.1153 289.783 56.0853 287.824 56.0703 285.834C56.0703 285.564 56.0703 285.286 56.0703 285.016C55.9426 271.683 56.9036 257.854 56.9036 257.854L91.1225 258.072L90.1691 284.979V286.045L89.9739 291.615V292.186C89.9739 292.186 109.929 301.337 111.963 302.974C113.998 304.61 115.492 309.888 113.66 310.481Z" fill="#AD6359"/>
<path d="M113.66 310.481C111.821 311.082 59.4637 310.601 57.4892 309.318C56.7385 308.845 56.3481 301.21 56.1604 291.975V291.683C56.1154 289.783 56.0853 287.824 56.0703 285.834C56.0703 285.564 56.0703 285.286 56.0703 285.016L90.1691 284.979V286.045L89.9739 291.615V292.186C89.9739 292.186 109.929 301.337 111.963 302.974C113.998 304.61 115.492 309.888 113.66 310.481Z" fill="#EBEBEB"/>
<path d="M113.66 310.481C111.821 311.082 59.4637 310.601 57.4892 309.318C56.7385 308.845 56.3481 301.21 56.1604 291.975V291.683L89.9439 291.615V292.186C89.9439 292.186 109.899 301.337 111.933 302.974C113.968 304.61 115.492 309.888 113.66 310.481Z" fill="#263238"/>
<path d="M113.097 308.447C104.276 308.147 68.6604 307.786 59.9142 308.162C59.8391 308.162 59.8391 308.214 59.9142 308.214C68.6529 308.702 104.268 308.777 113.097 308.589C113.27 308.582 113.27 308.454 113.097 308.447Z" fill="#263238"/>
<path d="M93.6975 291.743C90.2291 291.067 85.9799 291.563 83.2997 293.995C83.2021 294.093 83.3372 294.235 83.4498 294.205C86.7772 293.159 90.2081 292.477 93.6825 292.171C93.7281 292.157 93.7684 292.13 93.7977 292.093C93.8269 292.055 93.8435 292.01 93.8452 291.962C93.8469 291.915 93.8335 291.868 93.807 291.828C93.7804 291.789 93.7421 291.759 93.6975 291.743Z" fill="#263238"/>
<path d="M96.1899 293.282C92.7215 292.599 88.4723 293.094 85.7921 295.534C85.6945 295.632 85.8297 295.774 85.9423 295.744C89.2726 294.719 92.7029 294.052 96.1749 293.755C96.2376 293.757 96.2986 293.734 96.3443 293.691C96.3901 293.648 96.4169 293.589 96.4189 293.526C96.4209 293.463 96.3979 293.402 96.355 293.356C96.312 293.311 96.2526 293.284 96.1899 293.282Z" fill="#263238"/>
<path d="M98.6824 294.813C95.214 294.13 90.9648 294.626 88.2922 297.066C88.1871 297.156 88.2921 297.306 88.4348 297.268C91.7643 296.235 95.1946 295.56 98.6674 295.256C98.6965 295.257 98.7255 295.252 98.7528 295.242C98.78 295.232 98.805 295.217 98.8262 295.197C98.8475 295.177 98.8646 295.153 98.8767 295.126C98.8887 295.1 98.8954 295.071 98.8964 295.042C98.8974 295.013 98.8926 294.984 98.8824 294.957C98.8722 294.93 98.8567 294.905 98.8368 294.883C98.817 294.862 98.7931 294.845 98.7666 294.833C98.7401 294.821 98.7115 294.814 98.6824 294.813Z" fill="#263238"/>
<path d="M107.939 110.401C107.282 118.291 105.867 126.1 103.712 133.719C103.435 134.717 103.127 135.701 102.796 136.647C102.796 136.647 99.9737 137.968 94.4032 141.384C94.4032 141.384 94.0428 153.688 93.6524 167.405C93.247 182.742 92.8266 199.852 92.9017 203.478C93.2245 217.051 91.22 291.69 91.22 291.69L53.5251 291.855C53.5251 291.855 60.2818 208.523 60.2818 203.523C60.2068 195.527 62.0986 160.205 63.5551 134.454C64.4485 118.584 65.1842 110.431 65.1842 110.431L107.939 110.401Z" fill="#263238"/>
<path d="M89.9664 284.986C84.2082 284.896 85.8599 284.836 80.1017 284.813C77.2864 284.813 58.7655 284.716 56.1304 285.166C56.0704 285.166 56.0779 285.271 56.1304 285.279C58.7655 285.707 77.2864 285.459 80.1092 285.421C85.8674 285.339 84.2082 285.301 89.9664 285.159C89.985 285.153 90.0013 285.142 90.0129 285.126C90.0245 285.111 90.0308 285.092 90.0308 285.072C90.0308 285.053 90.0245 285.034 90.0129 285.019C90.0013 285.003 89.985 284.992 89.9664 284.986Z" fill="#37474F"/>
<path d="M68.3824 115.873C67.6917 136.894 66.9635 153.854 66.0251 174.882C65.0866 195.91 63.8179 217.059 62.0611 238.102C61.0777 249.859 60.1543 266.398 58.8855 278.132C58.8855 278.207 58.9981 278.237 59.0056 278.132C61.7458 257.269 63.2698 231.473 64.6212 210.475C65.9725 189.476 66.8734 168.433 67.5866 147.412C67.9845 135.52 68.2923 127.705 68.6452 115.813C68.6527 115.686 68.3899 115.701 68.3824 115.873Z" fill="#37474F"/>
<path d="M69.8315 129.537C70.7624 129.297 71.7534 129.222 72.6994 129.072C73.4501 128.951 74.2009 128.816 74.9516 128.651C76.4018 128.39 77.7761 127.81 78.9756 126.954C80.8524 125.453 83.0146 118.043 83.2773 117.57C83.7278 116.752 83.8629 117.465 83.8629 117.57C83.8629 118.433 81.8885 124.95 81.1227 126.166C79.7263 128.418 77.2188 129.289 74.7189 129.605C74.0057 129.695 73.2849 129.747 72.5642 129.785C71.6552 129.867 70.7406 129.867 69.8315 129.785C69.8039 129.778 69.7793 129.762 69.7617 129.74C69.7442 129.717 69.7346 129.689 69.7346 129.661C69.7346 129.632 69.7442 129.605 69.7617 129.582C69.7793 129.56 69.8039 129.544 69.8315 129.537Z" fill="#37474F"/>
<path d="M102.677 136.849C99.0074 138.181 95.4606 139.829 92.0761 141.774C92.0508 141.789 92.032 141.813 92.0231 141.841C92.0143 141.869 92.016 141.9 92.0281 141.926C92.0401 141.953 92.0616 141.975 92.0884 141.987C92.1153 141.999 92.1456 142.001 92.1737 141.992C95.7472 140.49 99.3958 138.989 102.887 137.255C102.929 137.221 102.958 137.174 102.969 137.121C102.981 137.068 102.973 137.013 102.948 136.966C102.923 136.918 102.883 136.88 102.833 136.859C102.784 136.838 102.728 136.834 102.677 136.849Z" fill="#37474F"/>
<path d="M103.75 112.33C103.75 112.21 103.525 112.18 103.525 112.33C103.526 116.319 103.326 120.306 102.924 124.274C102.759 126.121 101.28 136.286 98.0819 135.535C97.5489 135.415 97.2786 134.882 97.196 134.079C97.2066 133.025 97.3478 131.976 97.6164 130.956C97.9693 128.824 98.2546 126.684 98.4423 124.537C98.8103 120.527 98.765 116.489 98.3071 112.488C98.301 112.465 98.2878 112.446 98.2695 112.432C98.2512 112.418 98.2288 112.41 98.2058 112.41C98.1827 112.41 98.1604 112.418 98.1421 112.432C98.1237 112.446 98.1105 112.465 98.1044 112.488C98.2001 118.047 97.8738 123.606 97.1285 129.117C96.7306 131.759 95.3942 135.746 98.1645 136.159C100.935 136.571 102.812 129.89 103.157 128.066C104.035 122.868 104.235 117.579 103.75 112.33Z" fill="#37474F"/>
<path d="M98.172 135.821C97.8724 136.505 97.6216 137.21 97.4213 137.93C97.218 138.486 97.1163 139.073 97.121 139.665C97.121 139.777 97.2862 139.785 97.3462 139.71C97.681 139.188 97.9342 138.618 98.097 138.02C98.3372 137.367 98.5925 136.722 98.8477 136.061C98.8796 135.971 98.8745 135.873 98.8337 135.787C98.7929 135.701 98.7196 135.635 98.63 135.603C98.5404 135.571 98.4418 135.576 98.3559 135.617C98.2701 135.658 98.2039 135.731 98.172 135.821Z" fill="#37474F"/>
<path d="M101.655 69.6576C100.552 86.4593 101.325 103.629 103.48 106.737C106.82 111.564 128.75 121.887 136.13 123.771C138.547 124.387 144.02 108.321 142.406 106.196C140.792 104.072 116.88 94.7475 115.687 93.6439C115.049 93.0508 111.58 79.2371 108.652 69.8679C105.935 61.1592 101.993 64.5526 101.655 69.6576Z" fill="#AD6359"/>
<path d="M127.819 121.609L135.011 101.384C135.011 101.384 118.27 93.8766 116.288 92.7505C115.447 92.2851 111.07 75.2131 108.78 67.8108C107.279 62.946 102.677 60.5286 100.942 70.2132C99.9288 75.8813 99.073 103.306 102.729 107.856C105.65 111.482 127.819 121.609 127.819 121.609Z" fill="#455A64"/>
<path d="M124.501 118.921C124.786 117.42 126.993 111.376 127.564 109.913C128.134 108.449 130.567 102.51 131.19 100.979C131.19 100.896 131.355 100.919 131.317 100.979C130.762 102.48 128.75 108.621 128.194 110.115C127.639 111.609 125.372 117.623 124.576 118.951C124.574 118.956 124.571 118.961 124.567 118.965C124.563 118.969 124.559 118.972 124.554 118.974C124.549 118.976 124.544 118.977 124.539 118.977C124.533 118.977 124.528 118.976 124.523 118.974C124.518 118.972 124.514 118.969 124.51 118.965C124.506 118.962 124.503 118.957 124.501 118.952C124.499 118.948 124.498 118.942 124.498 118.937C124.498 118.932 124.499 118.926 124.501 118.921Z" fill="#263238"/>
<path opacity="0.1" d="M120.777 118.276C114.02 114.988 104.576 110.138 102.759 107.863C99.1029 103.306 99.9513 75.8813 100.972 70.2132C101.843 65.3184 103.457 63.5241 105.026 63.5616L120.777 118.276Z" fill="#020100"/>
<path d="M63.7129 110.28C63.7955 110.416 109.591 116.001 110.094 115.618C110.282 115.476 111.415 74.545 106.61 63.6742C104.628 59.1698 96.588 56.8124 92.0985 61.5721C70.1543 84.8002 63.6078 110.1 63.7129 110.28Z" fill="#EBEBEB"/>
<path d="M70.5617 127.638L77.5137 147.237L172.913 113.398L165.961 93.7991L70.5617 127.638Z" fill="#263238"/>
<path opacity="0.2" d="M70.5617 127.638L77.5137 147.237L172.913 113.398L165.961 93.7991L70.5617 127.638Z" fill="#020100"/>
<g opacity="0.1">
<path d="M164.53 98.6664C136.137 108.982 104.2 120.31 75.6497 130.198C104.043 119.882 135.979 108.554 164.53 98.6664Z" fill="black"/>
<path d="M165.912 102.555C137.518 112.863 105.589 124.192 77.061 134.071C105.454 123.756 137.391 112.435 165.942 102.54L165.912 102.555Z" fill="black"/>
<path d="M167.285 106.437C138.892 116.752 106.956 128.081 78.4048 137.968C106.798 127.653 138.742 116.324 167.285 106.437Z" fill="black"/>
<path d="M168.652 110.325C140.259 120.641 108.322 131.969 79.7712 141.857C108.164 131.541 140.101 120.22 168.652 110.325Z" fill="black"/>
</g>
<path d="M69.6663 150.28C69.6663 150.28 57.9772 155.903 54.0358 144.792C50.0944 133.681 62.7144 130.678 62.7144 130.678L69.6663 150.28Z" fill="#FF9ABB"/>
<path d="M62.1804 128.77L70.2969 151.652L75.8512 149.682L67.7347 126.8L62.1804 128.77Z" fill="#A6A6A6"/>
<path d="M68.3085 126.588L76.425 149.47L81.9793 147.5L73.8628 124.617L68.3085 126.588Z" fill="#A6A6A6"/>
<path d="M165.934 93.7791L182.653 96.1514L188.171 96.9021L184.417 101.024L172.939 113.404L169.388 112.428C169.388 112.428 171.512 109.537 171.542 109.477L167.991 108.501C167.991 108.501 170.123 105.611 170.153 105.551L166.617 104.62C166.617 104.62 168.734 101.684 168.757 101.617L165.228 100.686C165.228 100.686 167.338 97.7505 167.368 97.6829L163.832 96.752C163.832 96.752 165.912 93.8391 165.934 93.7791Z" fill="#263238"/>
<path opacity="0.8" d="M165.934 93.7791L182.653 96.1514L188.171 96.9021L184.417 101.024L172.939 113.404L169.388 112.428C169.388 112.428 171.512 109.537 171.542 109.477L167.991 108.501C167.991 108.501 170.123 105.611 170.153 105.551L166.617 104.62C166.617 104.62 168.734 101.684 168.757 101.617L165.228 100.686C165.228 100.686 167.338 97.7505 167.368 97.6829L163.832 96.752C163.832 96.752 165.912 93.8391 165.934 93.7791Z" fill="white"/>
<path d="M182.653 96.1514L188.171 96.9172L184.38 101.024L182.653 96.1514Z" fill="#263238"/>
<path d="M88.1121 64.2823C77.7743 73.4789 63.7429 90.4157 64.3736 94.7625C65.9501 105.641 74.0206 119.342 78.2473 124.409C80.7097 127.367 96.9558 115.123 94.8913 112.397C91.6481 108.081 83.9229 94.4697 83.0446 92.698C82.5716 91.752 89.7412 78.7792 93.6451 69.8904C97.8943 60.2208 93.1571 59.8079 88.1121 64.2823Z" fill="#AD6359"/>
<path d="M100.334 120.933C99.7485 119.74 100.372 119.432 102.489 120.445C104.606 121.459 112.143 127.322 113.968 124.522C115.792 121.722 105.041 113.621 101.37 112.187C97.699 110.753 91.3252 109.725 91.3252 109.725C93.0819 111.714 96.9257 116.97 100.334 120.933Z" fill="#AD6359"/>
<path d="M78.1348 124.327C83.3374 129.762 89.486 136.857 97.6541 139.162C98.5562 139.444 99.5276 139.413 100.409 139.071C104.058 140.175 105.665 138.779 105.665 138.779C109.373 138.779 110.83 137.12 110.83 137.12C110.83 137.12 115.116 138.358 116.303 135.888C117.639 133.126 111.348 131.917 108.292 129.132C101.295 122.765 93.1271 111.752 91.2953 109.717L78.1348 124.327Z" fill="#AD6359"/>
<path d="M96.2801 127.615C98.3068 129.512 100.462 131.268 102.729 132.87C105.313 134.458 108.01 135.853 110.799 137.044C110.811 137.046 110.822 137.05 110.832 137.056C110.841 137.062 110.85 137.07 110.856 137.08C110.862 137.09 110.865 137.101 110.866 137.112C110.867 137.124 110.866 137.136 110.861 137.146C110.857 137.157 110.851 137.167 110.842 137.174C110.834 137.182 110.823 137.188 110.812 137.191C110.801 137.194 110.79 137.195 110.778 137.193C110.767 137.191 110.756 137.186 110.747 137.18C105.125 135.422 100.092 132.155 96.1975 127.735C96.1074 127.608 96.175 127.525 96.2801 127.615Z" fill="#263238"/>
<path d="M91.8282 131.286C93.9678 132.953 97.7441 135.866 105.709 138.696C105.709 138.696 105.709 138.756 105.709 138.749C100.466 137.636 95.6363 135.086 91.7606 131.384C91.618 131.271 91.6856 131.174 91.8282 131.286Z" fill="#263238"/>
<path d="M89.4635 133.298C93.2172 136.001 95.9124 137.232 100.409 139.049C100.409 139.049 100.409 139.109 100.409 139.094C95.0866 137.592 93.3298 136.406 89.3734 133.411C89.2233 133.313 89.3209 133.193 89.4635 133.298Z" fill="#263238"/>
<path d="M73.8478 123.801L94.5533 109.62L84.0429 92.7505C87.654 85.626 94.3806 71.542 96.1374 66.2418C98.2019 60.0256 94.6359 59.2674 89.3356 63.3739C77.3237 72.7582 61.8059 90.8587 61.0926 94.6124C60.0716 99.9802 73.8478 123.801 73.8478 123.801Z" fill="#455A64"/>
<path d="M74.0957 118.666C75.2068 117.555 80.4995 113.794 81.8284 112.87C83.1572 111.947 88.585 108.419 89.9889 107.48C90.064 107.428 90.1541 107.518 90.079 107.57C88.7427 108.524 83.5551 112.488 82.2338 113.419C80.9124 114.349 75.5596 118.081 74.1407 118.734C74.0957 118.764 74.0582 118.704 74.0957 118.666Z" fill="#263238"/>
<path d="M92.3611 75.6186C90.2891 80.7386 87.4588 86.0089 85.1315 91.0238C84.9663 91.3842 84.4483 92.5253 84.3807 92.7055C86.708 96.8346 89.6359 101.279 92.0759 105.393L94.5833 109.56L94.0128 109.92L94.5458 109.5V109.552L91.7906 105.536C89.178 101.587 86.2801 97.2775 83.9003 93.231C83.8027 93.0133 83.6675 92.9007 83.6825 92.6004C83.8703 91.9322 84.1217 91.2836 84.4333 90.6635C86.7606 85.7836 89.8086 80.3257 92.3386 75.566L92.3611 75.6186Z" fill="#263238"/>
<path d="M92.5115 76.6171C92.1029 77.4165 91.5175 78.1123 90.7998 78.6516C91.329 77.9397 91.9006 77.2603 92.5115 76.6171Z" fill="#263238"/>
<path d="M135.732 116.962C136.985 114.71 138.93 117.473 138.93 117.473C138.93 117.473 137.098 112.81 139.29 110.986C141.482 109.162 143.637 112.668 143.795 112.908C143.697 112.66 142.128 108.328 144.545 106.722C146.963 105.115 148.674 108.884 148.78 109.132C148.78 108.877 148.614 105.378 150.709 104.627C154.313 103.246 155.581 113.111 158.029 115.063L163.682 113.644C162.551 114.626 161.727 115.914 161.31 117.352C160.649 119.417 160.221 120.791 159.267 121.752C158.852 122.198 158.305 122.497 157.705 122.607C157.106 122.717 156.488 122.63 155.942 122.36C155.942 122.36 156.49 125.048 154.643 126.369C153.697 127.045 151.768 126.129 151.768 126.129C151.768 126.129 152.113 128.298 150.401 129.372C149.035 130.235 147.316 129.184 147.316 129.184C147.316 129.184 146.685 131.436 145.003 131.849C141.625 132.69 133.044 121.789 135.732 116.962Z" fill="#AD6359"/>
<path d="M159.373 114.905L163.562 113.659H164.057C169.65 113.561 174.237 119.064 170.416 120.288C167.511 121.219 163.509 117.923 160.656 119.312L159.373 114.905Z" fill="#AD6359"/>
<path d="M147.008 129.027C147.008 129.027 147.008 129.117 146.963 129.087C143.111 126.088 140.265 121.987 138.802 117.33C138.765 117.18 138.99 117.045 139.065 117.202C141.123 121.509 143.799 125.492 147.008 129.027Z" fill="#263238"/>
<path d="M151.783 126.174C151.783 126.211 151.783 126.271 151.707 126.234C147.916 123.231 144.485 118.276 143.607 112.87C143.607 112.683 143.735 112.488 143.787 112.698C144.628 116.249 148.72 122.9 151.783 126.174Z" fill="#263238"/>
<path d="M148.84 108.734C149.883 113.884 152.473 118.186 155.769 122.247C155.814 122.3 155.732 122.352 155.687 122.322C153.539 120.821 151.708 117.998 150.431 115.708C149.239 113.603 148.617 111.221 148.63 108.801C148.66 108.674 148.817 108.629 148.84 108.734Z" fill="#263238"/>
<path d="M98.4048 58.374C96.1526 59.2824 96.3403 62.2553 97.8793 65.9265C99.4184 69.5976 101.821 72.1877 104.291 71.9925C106.761 71.7973 107.684 68.3063 107.909 66.3018C108.082 64.7253 107.504 61.5421 104.786 59.9881C102.068 58.434 99.6886 57.856 98.4048 58.374Z" fill="#455A64"/>
<path d="M103.667 70.5886C100.965 70.1757 97.8341 64.1622 97.3987 60.4385C97.3987 60.1833 98.5774 58.1037 99.9362 55.5061C100.747 53.9296 101.618 52.1578 102.294 50.4761L111.783 57.2704C110.339 59.118 109.127 61.1349 108.172 63.2763C108.08 63.507 108.009 63.7458 107.962 63.9895C107.964 64.0295 107.964 64.0697 107.962 64.1096C107.616 65.5286 106.28 70.9865 103.667 70.5886Z" fill="#AD6359"/>
<path d="M107.962 64.0271C107.962 64.0271 107.962 64.0946 107.962 64.1397C107.584 64.045 107.215 63.9194 106.858 63.7643C100.852 61.1742 102.399 53.1413 102.969 50.9341L105.334 52.6308L111.813 57.2779C110.368 59.1248 109.156 61.1418 108.202 63.2838C108.097 63.5229 108.017 63.7719 107.962 64.0271Z" fill="#263238"/>
<path d="M104.17 38.6745C102.068 42.3231 101.543 54.1248 103.75 57.2929C106.948 61.8799 113.51 63.7493 117.714 59.6052C121.813 55.5887 122.218 40.1909 119.643 37.1805C115.829 32.7511 107.263 33.2916 104.17 38.6745Z" fill="#AD6359"/>
<path d="M113.63 48.5918C113.63 48.5918 113.57 48.5918 113.57 48.6593C113.57 49.4551 113.405 50.3635 112.669 50.5887C112.669 50.5887 112.669 50.6413 112.669 50.6338C113.562 50.5587 113.75 49.35 113.63 48.5918Z" fill="#263238"/>
<path d="M112.962 47.7284C111.693 47.5633 111.46 50.1233 112.646 50.2734C113.833 50.4236 114.035 47.8636 112.962 47.7284Z" fill="#263238"/>
<path d="M118.142 48.847C118.142 48.847 118.202 48.847 118.194 48.9221C118.104 49.7104 118.127 50.6338 118.818 50.9566C118.818 50.9566 118.818 51.0092 118.818 51.0017C117.947 50.799 117.924 49.5752 118.142 48.847Z" fill="#263238"/>
<path d="M118.923 48.0813C120.206 48.0813 120.079 50.6638 118.923 50.6488C117.766 50.6338 117.849 48.0663 118.923 48.0813Z" fill="#263238"/>
<path d="M111.88 45.724C112.231 45.6898 112.579 45.6372 112.924 45.5663C113.299 45.5652 113.663 45.4413 113.96 45.2134C114.033 45.1171 114.072 44.9999 114.072 44.8794C114.072 44.7588 114.033 44.6416 113.96 44.5453C113.796 44.3702 113.589 44.2413 113.36 44.1714C113.131 44.1016 112.887 44.0933 112.654 44.1474C112.164 44.1892 111.706 44.4112 111.37 44.7705C111.293 44.8589 111.244 44.9688 111.231 45.0855C111.218 45.2022 111.24 45.3201 111.296 45.4236C111.351 45.5272 111.437 45.6114 111.541 45.665C111.646 45.7186 111.764 45.7392 111.88 45.724Z" fill="#263238"/>
<path d="M120.206 46.0468C119.87 45.9461 119.54 45.8283 119.215 45.6939C118.849 45.6154 118.517 45.4206 118.27 45.1383C118.216 45.0377 118.195 44.9229 118.21 44.8098C118.225 44.6968 118.274 44.5912 118.352 44.5077C118.547 44.368 118.775 44.282 119.013 44.2582C119.252 44.2345 119.492 44.274 119.711 44.3726C120.183 44.5099 120.587 44.8176 120.845 45.2359C120.89 45.3329 120.907 45.4404 120.895 45.5466C120.882 45.6528 120.841 45.7536 120.775 45.8376C120.709 45.9216 120.621 45.9856 120.52 46.0226C120.42 46.0595 120.311 46.0679 120.206 46.0468Z" fill="#263238"/>
<path d="M113.014 53.2539C113.186 53.5861 113.425 53.8791 113.716 54.1143C114.006 54.3495 114.343 54.5218 114.703 54.6203C115.019 54.7084 115.345 54.7513 115.672 54.7479C115.734 54.7557 115.797 54.7557 115.86 54.7479H116.032C116.076 54.7437 116.118 54.7253 116.15 54.6955C116.183 54.6657 116.204 54.6261 116.212 54.5827V54.5001V54.4251C116.287 53.817 116.31 52.886 116.31 52.886C116.52 53.0212 117.616 53.6368 117.624 53.3065C117.796 50.5501 117.691 47.7834 117.309 45.0483C117.309 45.0284 117.301 45.0093 117.287 44.9952C117.272 44.9811 117.253 44.9732 117.233 44.9732C117.214 44.9732 117.194 44.9811 117.18 44.9952C117.166 45.0093 117.158 45.0284 117.158 45.0483C116.986 47.5933 117.256 50.1533 117.158 52.7209C116.772 52.4948 116.355 52.3254 115.92 52.2179C115.83 52.2179 115.92 54.0197 115.852 54.2974C115.348 54.3044 114.847 54.2095 114.38 54.0186C113.913 53.8277 113.489 53.5447 113.134 53.1863C113.037 53.1413 112.969 53.1863 113.014 53.2539Z" fill="#263238"/>
<path d="M101.235 46.5197C101.115 45.4311 100.634 36.1895 101.13 35.0183C101.625 33.8472 102.721 34.6054 102.751 34.5454C102.782 34.4853 102.984 33.4793 103.667 33.2015C103.899 33.148 104.139 33.1423 104.372 33.1849C104.606 33.2275 104.829 33.3175 105.026 33.4493C105.026 33.4493 105.394 32.4132 106.107 32.2331C106.344 32.2013 106.585 32.2309 106.807 32.319C107.029 32.4071 107.225 32.5507 107.376 32.7361C107.484 32.4624 107.658 32.2194 107.882 32.0284C108.105 31.8373 108.373 31.704 108.66 31.64C108.91 31.6118 109.163 31.6653 109.381 31.7924C109.599 31.9196 109.77 32.1136 109.869 32.3457C109.869 32.3457 110.326 31.3772 111.055 31.2946C111.783 31.2121 112.271 32.0454 112.271 32.0454C112.414 31.8076 112.619 31.6125 112.863 31.4805C113.107 31.3485 113.382 31.2843 113.66 31.2946C113.923 31.356 114.161 31.4946 114.344 31.6926C114.528 31.8906 114.647 32.139 114.688 32.4057C114.862 32.1853 115.083 32.0071 115.335 31.8849C115.587 31.7626 115.864 31.6994 116.145 31.7C116.948 31.8051 117.061 32.8487 117.061 32.8487C117.061 32.8487 117.526 32.0153 118.269 32.1955C119.013 32.3757 119.02 33.4568 119.02 33.4568C119.02 33.4568 119.696 32.4057 120.439 32.9838C121.317 33.6745 121.377 40.4912 121.19 43.3441C121.19 43.3441 120.874 41.2345 120.064 41.2045C119.253 41.1744 118.705 42.9237 117.233 42.3756C115.762 41.8276 113.81 40.1234 111.633 40.2135C109.456 40.3036 107.706 42.4657 106.438 45.5888C105.034 49.1098 101.52 49.0948 101.235 46.5197Z" fill="#263238"/>
<path d="M111.46 52.2554C110.848 52.1188 110.287 51.8132 109.84 51.3734C109.394 50.9335 109.079 50.3771 108.933 49.7675C108.787 49.1578 108.815 48.5194 109.014 47.9249C109.213 47.3304 109.575 46.8038 110.059 46.4048C110.542 46.0058 111.128 45.7506 111.75 45.6683C112.371 45.5859 113.003 45.6796 113.574 45.9388C114.145 46.198 114.631 46.6122 114.978 47.1343C115.325 47.6564 115.519 48.2654 115.537 48.8921C115.548 49.4007 115.444 49.9054 115.233 50.368C115.021 50.8307 114.707 51.2393 114.315 51.5631C113.922 51.8869 113.461 52.1174 112.967 52.2373C112.472 52.3572 111.957 52.3634 111.46 52.2554ZM112.826 46.1519C112.58 46.1004 112.328 46.0777 112.076 46.0843C111.34 46.1142 110.644 46.4227 110.128 46.9472C109.612 47.4718 109.315 48.173 109.296 48.9086C109.278 49.6443 109.541 50.3593 110.031 50.9085C110.52 51.4577 111.201 51.8 111.934 51.866C112.667 51.9319 113.397 51.7166 113.977 51.2637C114.557 50.8107 114.943 50.1541 115.057 49.4271C115.17 48.7 115.003 47.957 114.589 47.3487C114.175 46.7405 113.545 46.3126 112.826 46.1519Z" fill="#263238"/>
<path d="M119.103 53.0137C117.857 52.7284 117.008 51.1969 117.188 49.4551C117.26 48.6239 117.591 47.8362 118.134 47.2029C118.361 46.9269 118.65 46.7087 118.978 46.5664C119.305 46.4241 119.662 46.3618 120.019 46.3846C120.372 46.4331 120.708 46.5664 120.998 46.7729C121.288 46.9795 121.524 47.2532 121.685 47.5708C122.088 48.3033 122.25 49.1434 122.151 49.9732C121.956 51.8125 120.687 53.1863 119.321 53.0437L119.103 53.0137ZM120.139 46.8576H119.974C119.688 46.8415 119.402 46.8946 119.14 47.0121C118.879 47.1297 118.65 47.3085 118.472 47.5332C117.989 48.0933 117.697 48.7929 117.639 49.5302C117.466 51.1218 118.247 52.5332 119.366 52.6308C120.484 52.7284 121.535 51.5497 121.708 49.9581C121.793 49.2228 121.651 48.479 121.302 47.826C121.188 47.5916 121.025 47.384 120.824 47.2171C120.624 47.0502 120.39 46.9276 120.139 46.8576Z" fill="#263238"/>
<path d="M115.387 49.2675L115.139 48.8921C115.687 48.5242 116.911 48.0738 117.639 49.0272L117.279 49.2975C116.633 48.4416 115.439 49.2299 115.387 49.2675Z" fill="#263238"/>
<path d="M100.454 48.5768L100.086 48.329C100.199 48.1563 101.235 46.6248 102.241 46.5648C103.247 46.5047 109.095 47.6909 109.351 47.7434L109.261 48.1864C107.564 47.841 102.999 46.9702 102.271 47.0152C101.543 47.0603 100.732 48.1563 100.454 48.5768Z" fill="#263238"/>
<path d="M104.471 48.4642C104.471 48.4642 102.661 44.2525 100.8 44.8155C98.9377 45.3786 99.7635 51.1218 101.55 52.2629C101.772 52.4253 102.024 52.541 102.291 52.603C102.559 52.665 102.836 52.672 103.107 52.6235C103.377 52.5751 103.634 52.4722 103.864 52.3212C104.093 52.1701 104.289 51.9741 104.441 51.7449L104.471 48.4642Z" fill="#AD6359"/>
<path d="M101.085 46.4597C101.085 46.4597 101.04 46.4597 101.085 46.5047C102.346 47.353 102.804 48.7569 103.037 50.2059C102.987 50.0509 102.903 49.9087 102.792 49.7894C102.681 49.67 102.546 49.5763 102.395 49.5148C102.244 49.4533 102.082 49.4255 101.919 49.4334C101.756 49.4412 101.597 49.4845 101.453 49.5602C101.408 49.5602 101.453 49.6428 101.453 49.6428C101.71 49.6148 101.97 49.6677 102.196 49.7942C102.422 49.9206 102.603 50.1144 102.714 50.3485C102.896 50.74 103.035 51.1504 103.127 51.5722C103.172 51.7149 103.405 51.6923 103.39 51.5722V51.5347C103.773 49.7629 102.924 47.0227 101.085 46.4597Z" fill="#263238"/>
</svg>
